<?xml version="1.0" encoding="utf-8"?>
<svg xmlns="http://www.w3.org/2000/svg" viewBox="-816.3234 -470.1872 1729.4092 1729.4094" width="1729.41px" height="1729.41px" preserveAspectRatio="none"><g id="svg1"><g id="g1" transform="matrix(1, 0, 0, 1, -1601.620689, -1255.480439)"><path id="path2" d="m 17956.8,14752.1 -1363.1,-1356.7 m 817.4,2428 -2439.6,-2428.2 m -265.4,4579.2 -1311.3,-1305.3 m 2391.6,766.1 -2391.7,-2380.6 m 3288.8,1659 -3288.1,-3272.8 m -6443.31,-357.9 c 74.25,331.9 180.68,651.6 315.82,955.8 m 746.86,1200.3 c 739.92,888.3 1774.32,1522.6 2953.33,1753.1 M 12792,18860.3 V 12792 h 6068.3 c 0,3351.4 -2716.9,6068.3 -6068.3,6068.3 z m -834,-834.1 c -1609.4,0 -3152.91,-639.3 -4290.93,-1777.4 -1138.01,-1138 -1777.34,-2681.4 -1777.34,-4290.8 0,-1609.4 639.33,-3152.91 1777.34,-4290.93 C 8805.09,6529.06 10348.6,5889.73 11958,5889.73 c 1609.4,0 3152.8,639.33 4290.8,1777.34 1138.1,1138.02 1777.4,2681.53 1777.4,4290.93 H 11958 Z" style="fill:none;stroke:#000000;stroke-width:375.001;stroke-linecap:round;stroke-linejoin:miter;stroke-miterlimit:4;stroke-dasharray:none;stroke-opacity:1" transform="matrix(0.13333333,0,0,-0.13333333,0,3300)"/></g></g></svg>